NotoSans-CondensedBold.ufo
<glyph name="tbar" format="2">
  <advance width="354"/>
  <unicode hex="0167"/>
  <anchor x="208" y="0" name="bottom"/>
  <anchor x="163" y="664" name="top"/>
  <anchor x="177" y="277" name="center"/>
  <anchor x="329" y="664" name="topright"/>
  <outline>
    <contour>
      <point x="12" y="220" type="line"/>
      <point x="318" y="220" type="line"/>
      <point x="318" y="333" type="line"/>
      <point x="12" y="333" type="line"/>
    </contour>
    <component base="t"/>
  </outline>
</glyph>
<glyph name="florin" format="2">
  <advance width="458"/>
  <unicode hex="0192"/>
  <anchor x="166" y="0" name="bottom"/>
  <anchor x="347" y="765" name="top"/>
  <anchor x="474" y="765" name="topright"/>
  <outline>
    <contour>
      <point x="180" y="-15" type="curve" smooth="yes"/>
      <point x="299" y="-15"/>
      <point x="361" y="68"/>
      <point x="361" y="193" type="curve" smooth="yes"/>
      <point x="361" y="420" type="line"/>
      <point x="451" y="420" type="line"/>
      <point x="451" y="553" type="line"/>
      <point x="361" y="553" type="line"/>
      <point x="361" y="573" type="line" smooth="yes"/>
      <point x="361" y="613"/>
      <point x="371" y="630"/>
      <point x="393" y="630" type="curve" smooth="yes"/>
      <point x="410" y="630"/>
      <point x="427" y="626"/>
      <point x="445" y="620" type="curve"/>
      <point x="477" y="739" type="line"/>
      <point x="428" y="758"/>
      <point x="398" y="765"/>
      <point x="354" y="765" type="curve" smooth="yes"/>
      <point x="248" y="765"/>
      <point x="199" y="707"/>
      <point x="199" y="560" type="curve" smooth="yes"/>
      <point x="199" y="551" type="line"/>
      <point x="138" y="506" type="line"/>
      <point x="138" y="420" type="line"/>
      <point x="199" y="420" type="line"/>
      <point x="199" y="175" type="line" smooth="yes"/>
      <point x="199" y="139"/>
      <point x="186" y="120"/>
      <point x="163" y="120" type="curve" smooth="yes"/>
      <point x="141" y="120"/>
      <point x="125" y="132"/>
      <point x="125" y="165" type="curve" smooth="yes"/>
      <point x="125" y="175"/>
      <point x="126" y="182"/>
      <point x="129" y="191" type="curve"/>
      <point x="7" y="231" type="line"/>
      <point x="-2" y="215"/>
      <point x="-10" y="176"/>
      <point x="-10" y="149" type="curve" smooth="yes"/>
      <point x="-10" y="51"/>
      <point x="55" y="-15"/>
    </contour>
  </outline>
</glyph>
<glyph name="uni023A" format="2">
  <advance width="574"/>
  <unicode hex="023A"/>
  <anchor x="288" y="0" name="bottom"/>
  <anchor x="288" y="714" name="top"/>
  <anchor x="526" y="714" name="topright"/>
  <outline>
    <contour>
      <point x="414" y="760" type="line"/>
      <point x="357" y="760" type="line"/>
      <point x="192" y="-75" type="line"/>
      <point x="249" y="-75" type="line"/>
    </contour>
    <component base="A"/>
  </outline>
</glyph>
<glyph name="uni023C" format="2">
  <advance width="433"/>
  <unicode hex="023C"/>
  <anchor x="254" y="-208" name="bottom"/>
  <anchor x="247" y="760" name="top"/>
  <anchor x="403" y="553" name="topright"/>
  <outline>
    <contour>
      <point x="379" y="760" type="line"/>
      <point x="322" y="760" type="line"/>
      <point x="167" y="-208" type="line"/>
      <point x="224" y="-208" type="line"/>
    </contour>
    <component base="c"/>
  </outline>
</glyph>
<glyph name="uni0246" format="2">
  <advance width="443"/>
  <unicode hex="0246"/>
  <anchor x="233" y="0" name="bottom"/>
  <anchor x="229" y="714" name="top"/>
  <anchor x="423" y="714" name="topright"/>
  <outline>
    <contour>
      <point x="371" y="760" type="line"/>
      <point x="316" y="760" type="line"/>
      <point x="224" y="-75" type="line"/>
      <point x="279" y="-75" type="line"/>
    </contour>
    <component base="E"/>
  </outline>
</glyph>
<glyph name="uni0247" format="2">
  <advance width="483"/>
  <unicode hex="0247"/>
  <anchor x="261" y="-208" name="bottom"/>
  <anchor x="246" y="760" name="top"/>
  <anchor x="473" y="553" name="topright"/>
  <outline>
    <contour>
      <point x="359" y="760" type="line"/>
      <point x="302" y="760" type="line"/>
      <point x="117" y="-208" type="line"/>
      <point x="174" y="-208" type="line"/>
    </contour>
    <component base="e"/>
  </outline>
</glyph>
<glyph name="uni024C" format="2">
  <advance width="545"/>
  <unicode hex="024C"/>
  <anchor x="283" y="0" name="bottom"/>
  <anchor x="280" y="714" name="top"/>
  <anchor x="525" y="714" name="topright"/>
  <outline>
    <contour>
      <point x="199" y="268" type="line"/>
      <point x="199" y="400" type="line"/>
      <point x="5" y="400" type="line"/>
      <point x="5" y="268" type="line"/>
    </contour>
    <component base="R"/>
  </outline>
</glyph>
<glyph name="uni024F" format="2">
  <advance width="491"/>
  <unicode hex="024F"/>
  <anchor x="131" y="-240" name="bottom"/>
  <anchor x="246" y="553" name="top"/>
  <anchor x="471" y="553" name="topright"/>
  <outline>
    <contour>
      <point x="486" y="398" type="line"/>
      <point x="5" y="398" type="line"/>
      <point x="5" y="308" type="line"/>
      <point x="486" y="308" type="line"/>
    </contour>
    <component base="y"/>
  </outline>
</glyph>
<glyph name="uni0268" format="2">
  <advance width="265"/>
  <unicode hex="0268"/>
  <anchor x="135" y="0" name="bottom"/>
  <anchor x="133" y="776" name="top"/>
  <anchor x="245" y="776" name="topright"/>
  <outline>
    <contour>
      <point x="265" y="353" type="line"/>
      <point x="0" y="353" type="line"/>
      <point x="0" y="237" type="line"/>
      <point x="265" y="237" type="line"/>
    </contour>
    <component base="i"/>
  </outline>
</glyph>
<glyph name="archaicsampi" format="2">
  <advance width="552"/>
  <unicode hex="0373"/>
  <anchor x="276" y="0" name="bottom"/>
  <anchor x="276" y="760" name="top"/>
  <outline>
    <contour>
      <point x="361" y="0" type="line"/>
      <point x="361" y="613" type="line"/>
      <point x="530" y="613" type="line"/>
      <point x="530" y="760" type="line"/>
      <point x="22" y="760" type="line"/>
      <point x="22" y="613" type="line"/>
      <point x="191" y="613" type="line"/>
      <point x="191" y="0" type="line"/>
    </contour>
    <contour>
      <point x="419" y="760" type="line"/>
      <point x="419" y="423" type="line"/>
      <point x="540" y="423" type="line"/>
      <point x="540" y="760" type="line"/>
    </contour>
    <contour>
      <point x="12" y="760" type="line"/>
      <point x="12" y="423" type="line"/>
      <point x="133" y="423" type="line"/>
      <point x="133" y="760" type="line"/>
    </contour>
  </outline>
</glyph>
<glyph name="Theta" format="2">
  <advance width="621"/>
  <unicode hex="0398"/>
  <anchor x="311" y="0" name="bottom"/>
  <anchor x="311" y="714" name="top"/>
  <anchor x="311" y="357" name="center"/>
  <anchor x="601" y="714" name="topright"/>
  <outline>
    <contour>
      <point x="376" y="430" type="line"/>
      <point x="244" y="430" type="line"/>
      <point x="244" y="295" type="line"/>
      <point x="376" y="295" type="line"/>
    </contour>
    <component base="O"/>
  </outline>
</glyph>
<glyph name="uni0488" format="2">
  <advance width="890"/>
  <unicode hex="0488"/>
  <outline>
    <contour>
      <point x="579" y="456" type="curve"/>
      <point x="636" y="456" type="line"/>
      <point x="638" y="477"/>
      <point x="658" y="488"/>
      <point x="696" y="488" type="curve" smooth="yes"/>
      <point x="743" y="488"/>
      <point x="755" y="478"/>
      <point x="757" y="456" type="curve"/>
      <point x="813" y="456" type="line"/>
      <point x="811" y="517"/>
      <point x="764" y="557"/>
      <point x="696" y="557" type="curve" smooth="yes"/>
      <point x="631" y="557"/>
      <point x="582" y="514"/>
    </contour>
    <contour>
      <point x="77" y="-20" type="curve"/>
      <point x="135" y="-20" type="line"/>
      <point x="136" y="0"/>
      <point x="158" y="12"/>
      <point x="195" y="12" type="curve" smooth="yes"/>
      <point x="241" y="12"/>
      <point x="254" y="1"/>
      <point x="256" y="-20" type="curve"/>
      <point x="312" y="-20" type="line"/>
      <point x="308" y="42"/>
      <point x="263" y="81"/>
      <point x="195" y="81" type="curve" smooth="yes"/>
      <point x="132" y="81"/>
      <point x="80" y="39"/>
    </contour>
    <contour>
      <point x="324" y="-156" type="curve"/>
      <point x="382" y="-156" type="line"/>
      <point x="382" y="-135"/>
      <point x="402" y="-124"/>
      <point x="441" y="-124" type="curve" smooth="yes"/>
      <point x="488" y="-124"/>
      <point x="500" y="-134"/>
      <point x="502" y="-156" type="curve"/>
      <point x="559" y="-156" type="line"/>
      <point x="556" y="-96"/>
      <point x="510" y="-55"/>
      <point x="441" y="-55" type="curve" smooth="yes"/>
      <point x="376" y="-55"/>
      <point x="327" y="-97"/>
    </contour>
    <contour>
      <point x="15" y="221" type="curve"/>
      <point x="73" y="221" type="line"/>
      <point x="73" y="242"/>
      <point x="94" y="253"/>
      <point x="133" y="253" type="curve" smooth="yes"/>
      <point x="178" y="253"/>
      <point x="191" y="244"/>
      <point x="193" y="221" type="curve"/>
      <point x="250" y="221" type="line"/>
      <point x="247" y="282"/>
      <point x="202" y="322"/>
      <point x="133" y="322" type="curve" smooth="yes"/>
      <point x="68" y="322"/>
      <point x="18" y="279"/>
    </contour>
    <contour>
      <point x="76" y="454" type="curve"/>
      <point x="133" y="454" type="line"/>
      <point x="135" y="474"/>
      <point x="156" y="486"/>
      <point x="193" y="486" type="curve" smooth="yes"/>
      <point x="240" y="486"/>
      <point x="252" y="475"/>
      <point x="254" y="454" type="curve"/>
      <point x="310" y="454" type="line"/>
      <point x="308" y="515"/>
      <point x="261" y="555"/>
      <point x="193" y="555" type="curve" smooth="yes"/>
      <point x="128" y="555"/>
      <point x="79" y="512"/>
    </contour>
    <contour>
      <point x="579" y="-20" type="curve"/>
      <point x="637" y="-20" type="line"/>
      <point x="638" y="1"/>
      <point x="658" y="12"/>
      <point x="696" y="12" type="curve" smooth="yes"/>
      <point x="743" y="12"/>
      <point x="755" y="2"/>
      <point x="757" y="-20" type="curve"/>
      <point x="814" y="-20" type="line"/>
      <point x="811" y="40"/>
      <point x="765" y="81"/>
      <point x="696" y="81" type="curve" smooth="yes"/>
      <point x="632" y="81"/>
      <point x="582" y="38"/>
    </contour>
    <contour>
      <point x="640" y="217" type="curve"/>
      <point x="698" y="217" type="line"/>
      <point x="698" y="238"/>
      <point x="719" y="249"/>
      <point x="758" y="249" type="curve" smooth="yes"/>
      <point x="804" y="249"/>
      <point x="817" y="239"/>
      <point x="819" y="217" type="curve"/>
      <point x="875" y="217" type="line"/>
      <point x="871" y="279"/>
      <point x="826" y="318"/>
      <point x="758" y="318" type="curve" smooth="yes"/>
      <point x="695" y="318"/>
      <point x="643" y="276"/>
    </contour>
    <contour>
      <point x="323" y="595" type="curve"/>
      <point x="381" y="595" type="line"/>
      <point x="381" y="616"/>
      <point x="402" y="627"/>
      <point x="441" y="627" type="curve" smooth="yes"/>
      <point x="487" y="627"/>
      <point x="500" y="617"/>
      <point x="502" y="595" type="curve"/>
      <point x="557" y="595" type="line"/>
      <point x="555" y="656"/>
      <point x="510" y="696"/>
      <point x="441" y="696" type="curve" smooth="yes"/>
      <point x="377" y="696"/>
      <point x="326" y="654"/>
    </contour>
  </outline>
</glyph>
<glyph name="uni0489" format="2">
  <advance width="877"/>
  <unicode hex="0489"/>
  <outline>
    <contour>
      <point x="729" y="602" type="line"/>
      <point x="689" y="588"/>
      <point x="609" y="550"/>
      <point x="571" y="529" type="curve"/>
      <point x="570" y="520" type="line"/>
      <point x="641" y="449" type="line"/>
      <point x="677" y="477"/>
      <point x="726" y="509"/>
      <point x="786" y="546" type="curve"/>
    </contour>
    <contour>
      <point x="236" y="90" type="line"/>
      <point x="203" y="64"/>
      <point x="154" y="32"/>
      <point x="91" y="-6" type="curve"/>
      <point x="148" y="-63" type="line"/>
      <point x="207" y="-41"/>
      <point x="259" y="-17"/>
      <point x="306" y="11" type="curve"/>
      <point x="308" y="20" type="line"/>
    </contour>
    <contour>
      <point x="15" y="337" type="curve"/>
      <point x="15" y="257" type="line"/>
      <point x="71" y="231"/>
      <point x="126" y="211"/>
      <point x="179" y="198" type="curve"/>
      <point x="186" y="203" type="line"/>
      <point x="186" y="303" type="line"/>
      <point x="144" y="309"/>
      <point x="86" y="320"/>
    </contour>
    <contour>
      <point x="506" y="-17" type="line"/>
      <point x="405" y="-17" type="line"/>
      <point x="400" y="-59"/>
      <point x="388" y="-116"/>
      <point x="371" y="-188" type="curve"/>
      <point x="451" y="-188" type="line"/>
      <point x="477" y="-131"/>
      <point x="497" y="-77"/>
      <point x="511" y="-24" type="curve"/>
    </contour>
    <contour>
      <point x="664" y="114" type="line"/>
      <point x="594" y="43" type="line"/>
      <point x="622" y="7"/>
      <point x="654" y="-41"/>
      <point x="690" y="-101" type="curve"/>
      <point x="746" y="-45" type="line"/>
      <point x="731" y="-5"/>
      <point x="694" y="75"/>
      <point x="673" y="113" type="curve"/>
    </contour>
    <contour>
      <point x="187" y="642" type="curve"/>
      <point x="130" y="585" type="line"/>
      <point x="152" y="526"/>
      <point x="176" y="474"/>
      <point x="204" y="427" type="curve"/>
      <point x="212" y="425" type="line"/>
      <point x="283" y="497" type="line"/>
      <point x="257" y="530"/>
      <point x="225" y="579"/>
    </contour>
    <contour>
      <point x="698" y="342" type="curve"/>
      <point x="691" y="336" type="line"/>
      <point x="691" y="237" type="line"/>
      <point x="737" y="230"/>
      <point x="793" y="219"/>
      <point x="862" y="203" type="curve"/>
      <point x="862" y="282" type="line"/>
      <point x="824" y="301"/>
      <point x="740" y="330"/>
    </contour>
    <contour>
      <point x="506" y="728" type="curve"/>
      <point x="427" y="728" type="line"/>
      <point x="408" y="689"/>
      <point x="378" y="606"/>
      <point x="367" y="564" type="curve"/>
      <point x="372" y="557" type="line"/>
      <point x="472" y="557" type="line"/>
      <point x="479" y="603"/>
      <point x="490" y="659"/>
    </contour>
  </outline>
</glyph>
<glyph name="uni049D" format="2">
  <advance width="531"/>
  <unicode hex="049D"/>
  <anchor x="266" y="0" name="bottom"/>
  <anchor x="266" y="553" name="top"/>
  <outline>
    <contour>
      <point x="290" y="529" type="line"/>
      <point x="239" y="529" type="line"/>
      <point x="239" y="23" type="line"/>
      <point x="290" y="23" type="line"/>
    </contour>
    <component base="afii10076"/>
  </outline>
</glyph>
<glyph name="uni051F" format="2">
  <advance width="526"/>
  <unicode hex="051F"/>
  <anchor x="263" y="0" name="bottom"/>
  <anchor x="263" y="553" name="top"/>
  <outline>
    <contour>
      <point x="227" y="465" type="line"/>
      <point x="471" y="324" type="line"/>
      <point x="510" y="391" type="line"/>
      <point x="266" y="532" type="line"/>
    </contour>
    <component base="afii10076"/>
  </outline>
</glyph>
<glyph name="uni1ABA" format="2">
  <unicode hex="1ABA"/>
  <anchor x="3" y="0" name="_bottom"/>
  <anchor x="5" y="-240" name="bottom"/>
  <outline>
    <contour>
      <point x="2" y="40" type="line"/>
      <point x="-85" y="-177" type="line"/>
      <point x="23" y="-177" type="line"/>
      <point x="110" y="40" type="line"/>
    </contour>
    <contour>
      <point x="-104" y="-167" type="curve" smooth="yes"/>
      <point x="-104" y="-216"/>
      <point x="-78" y="-240"/>
      <point x="-26" y="-240" type="curve" smooth="yes"/>
      <point x="27" y="-240"/>
      <point x="52" y="-216"/>
      <point x="52" y="-167" type="curve" smooth="yes"/>
      <point x="52" y="-118"/>
      <point x="29" y="-92"/>
      <point x="-26" y="-92" type="curve" smooth="yes"/>
      <point x="-81" y="-92"/>
      <point x="-104" y="-117"/>
    </contour>
  </outline>
</glyph>
<glyph name="uni1D03" format="2">
  <advance width="518"/>
  <unicode hex="1D03"/>
  <anchor x="262" y="0" name="bottom"/>
  <anchor x="244" y="553" name="top"/>
  <outline>
    <contour>
      <point x="513" y="339" type="line"/>
      <point x="5" y="339" type="line"/>
      <point x="5" y="232" type="line"/>
      <point x="513" y="232" type="line"/>
    </contour>
    <component base="uni0299"/>
  </outline>
</glyph>
<glyph name="uni1D24" format="2">
  <advance width="477"/>
  <unicode hex="1D24"/>
  <anchor x="229" y="0" name="bottom"/>
  <anchor x="229" y="760" name="top"/>
  <outline>
    <contour>
      <point x="238" y="-11" type="curve" smooth="yes"/>
      <point x="305" y="-11"/>
      <point x="373" y="11"/>
      <point x="426" y="50" type="curve"/>
      <point x="374" y="177" type="line"/>
      <point x="333" y="149"/>
      <point x="296" y="136"/>
      <point x="259" y="136" type="curve" smooth="yes"/>
      <point x="220" y="136"/>
      <point x="195" y="160"/>
      <point x="195" y="197" type="curve" smooth="yes"/>
      <point x="195" y="245"/>
      <point x="236" y="284"/>
      <point x="322" y="309" type="curve"/>
      <point x="322" y="383" type="line"/>
      <point x="417" y="441"/>
      <point x="450" y="490"/>
      <point x="450" y="573" type="curve" smooth="yes"/>
      <point x="450" y="691"/>
      <point x="369" y="767"/>
      <point x="244" y="767" type="curve" smooth="yes"/>
      <point x="177" y="767"/>
      <point x="109" y="745"/>
      <point x="56" y="706" type="curve"/>
      <point x="108" y="579" type="line"/>
      <point x="149" y="607"/>
      <point x="186" y="620"/>
      <point x="223" y="620" type="curve" smooth="yes"/>
      <point x="262" y="620"/>
      <point x="287" y="596"/>
      <point x="287" y="559" type="curve" smooth="yes"/>
      <point x="287" y="511"/>
      <point x="246" y="472"/>
      <point x="160" y="447" type="curve"/>
      <point x="160" y="373" type="line"/>
      <point x="65" y="315"/>
      <point x="32" y="266"/>
      <point x="32" y="183" type="curve" smooth="yes"/>
      <point x="32" y="65"/>
      <point x="113" y="-11"/>
    </contour>
  </outline>
</glyph>
<glyph name="uni1D70" format="2">
  <advance width="598"/>
  <unicode hex="1D70"/>
  <anchor x="298" y="0" name="bottom"/>
  <anchor x="308" y="553" name="top"/>
  <anchor x="533" y="553" name="topright"/>
  <outline>
    <contour>
      <point x="624" y="332" type="curve"/>
      <point x="539" y="332" type="line"/>
      <point x="538" y="300"/>
      <point x="519" y="283"/>
      <point x="490" y="283" type="curve" smooth="yes"/>
      <point x="365" y="283"/>
      <point x="270" y="332"/>
      <point x="133" y="332" type="curve" smooth="yes"/>
      <point x="46" y="332"/>
      <point x="-21" y="278"/>
      <point x="-26" y="168" type="curve"/>
      <point x="59" y="168" type="line"/>
      <point x="63" y="207"/>
      <point x="84" y="218"/>
      <point x="116" y="218" type="curve" smooth="yes"/>
      <point x="233" y="218"/>
      <point x="338" y="169"/>
      <point x="457" y="169" type="curve" smooth="yes"/>
      <point x="559" y="169"/>
      <point x="619" y="223"/>
    </contour>
    <component base="n" xOffset="33"/>
  </outline>
</glyph>
<glyph name="uni1D7A" format="2">
  <advance width="883"/>
  <unicode hex="1D7A"/>
  <anchor x="208" y="0" name="bottom_1"/>
  <anchor x="620" y="0" name="bottom_2"/>
  <anchor x="177" y="277" name="center_1"/>
  <anchor x="619" y="277" name="center_2"/>
  <anchor x="163" y="664" name="top_1"/>
  <anchor x="485" y="760" name="top_2"/>
  <anchor x="211" y="880" name="topright_1"/>
  <anchor x="838" y="760" name="topright_2"/>
  <outline>
    <contour>
      <point x="76" y="-75" type="line"/>
      <point x="158" y="-75" type="line"/>
      <point x="767" y="760" type="line"/>
      <point x="685" y="760" type="line"/>
    </contour>
    <component base="t"/>
    <component base="h" xOffset="354"/>
  </outline>
</glyph>
<glyph name="uni1D7C" format="2">
  <advance width="333"/>
  <unicode hex="1D7C"/>
  <anchor x="177" y="0" name="bottom"/>
  <anchor x="147" y="553" name="top"/>
  <outline>
    <contour>
      <point x="289" y="353" type="line"/>
      <point x="0" y="353" type="line"/>
      <point x="0" y="237" type="line"/>
      <point x="289" y="237" type="line"/>
    </contour>
    <component base="iota"/>
  </outline>
</glyph>
<glyph name="uni1FEF" format="2">
  <advance width="569"/>
  <unicode hex="1FEF"/>
  <anchor x="279" y="553" name="_top"/>
  <anchor x="260" y="773" name="top"/>
  <outline>
    <contour>
      <point x="342" y="606" type="line"/>
      <point x="342" y="622" type="line"/>
      <point x="333" y="657"/>
      <point x="322" y="724"/>
      <point x="318" y="773" type="curve"/>
      <point x="173" y="773" type="line"/>
      <point x="173" y="759" type="line"/>
      <point x="194" y="706"/>
      <point x="221" y="651"/>
      <point x="250" y="606" type="curve"/>
    </contour>
  </outline>
</glyph>
<glyph name="uni1FFD" format="2">
  <advance width="566"/>
  <unicode hex="1FFD"/>
  <anchor x="282" y="553" name="_top"/>
  <anchor x="315" y="773" name="top"/>
  <outline>
    <contour>
      <point x="216" y="606" type="line"/>
      <point x="308" y="606" type="line"/>
      <point x="346" y="649"/>
      <point x="384" y="708"/>
      <point x="409" y="759" type="curve"/>
      <point x="409" y="773" type="line"/>
      <point x="263" y="773" type="line"/>
      <point x="256" y="726"/>
      <point x="232" y="657"/>
      <point x="216" y="623" type="curve"/>
    </contour>
  </outline>
</glyph>
<glyph name="equalsuperior" format="2">
  <advance width="388"/>
  <unicode hex="207C"/>
  <outline>
    <contour>
      <point x="35" y="476" type="line"/>
      <point x="353" y="476" type="line"/>
      <point x="353" y="560" type="line"/>
      <point x="35" y="560" type="line"/>
    </contour>
    <contour>
      <point x="35" y="334" type="line"/>
      <point x="353" y="334" type="line"/>
      <point x="353" y="418" type="line"/>
      <point x="35" y="418" type="line"/>
    </contour>
  </outline>
</glyph>
<glyph name="parenleftsuperior" format="2">
  <advance width="253"/>
  <unicode hex="207D"/>
  <outline>
    <contour>
      <point x="36" y="497" type="curve" smooth="yes"/>
      <point x="36" y="394"/>
      <point x="59" y="289"/>
      <point x="124" y="214" type="curve"/>
      <point x="225" y="214" type="line"/>
      <point x="168" y="292"/>
      <point x="144" y="398"/>
      <point x="144" y="498" type="curve" smooth="yes"/>
      <point x="144" y="599"/>
      <point x="168" y="705"/>
      <point x="226" y="785" type="curve"/>
      <point x="124" y="785" type="line"/>
      <point x="59" y="708"/>
      <point x="36" y="601"/>
    </contour>
  </outline>
</glyph>
<glyph name="uni20A5" format="2">
  <advance width="789"/>
  <unicode hex="20A5"/>
  <anchor x="396" y="0" name="bottom"/>
  <anchor x="412" y="553" name="top"/>
  <anchor x="760" y="553" name="topright"/>
  <outline>
    <contour>
      <point x="600" y="666" type="line"/>
      <point x="498" y="666" type="line"/>
      <point x="238" y="-110" type="line"/>
      <point x="341" y="-110" type="line"/>
    </contour>
    <component base="m"/>
  </outline>
</glyph>
<glyph name="uni20A9" format="2">
  <advance width="710"/>
  <unicode hex="20A9"/>
  <outline>
    <contour>
      <point x="103" y="0" type="line"/>
      <point x="270" y="0" type="line"/>
      <point x="309" y="254" type="line"/>
      <point x="390" y="254" type="line"/>
      <point x="434" y="0" type="line"/>
      <point x="598" y="0" type="line"/>
      <point x="636" y="254" type="line"/>
      <point x="710" y="254" type="line"/>
      <point x="710" y="331" type="line"/>
      <point x="648" y="331" type="line"/>
      <point x="656" y="388" type="line"/>
      <point x="710" y="388" type="line"/>
      <point x="710" y="465" type="line"/>
      <point x="668" y="465" type="line"/>
      <point x="705" y="714" type="line"/>
      <point x="557" y="714" type="line"/>
      <point x="534" y="465" type="line"/>
      <point x="458" y="465" type="line"/>
      <point x="418" y="714" type="line"/>
      <point x="282" y="714" type="line"/>
      <point x="239" y="465" type="line"/>
      <point x="172" y="465" type="line"/>
      <point x="153" y="714" type="line"/>
      <point x="5" y="714" type="line"/>
      <point x="39" y="465" type="line"/>
      <point x="0" y="465" type="line"/>
      <point x="0" y="388" type="line"/>
      <point x="50" y="388" type="line"/>
      <point x="58" y="331" type="line"/>
      <point x="0" y="331" type="line"/>
      <point x="0" y="254" type="line"/>
      <point x="68" y="254" type="line"/>
    </contour>
    <contour>
      <point x="194" y="179" type="line"/>
      <point x="188" y="254" type="line"/>
      <point x="208" y="254" type="line"/>
    </contour>
    <contour>
      <point x="508" y="179" type="line"/>
      <point x="495" y="254" type="line"/>
      <point x="515" y="254" type="line"/>
    </contour>
    <contour>
      <point x="339" y="465" type="line"/>
      <point x="347" y="528" type="line"/>
      <point x="356" y="465" type="line"/>
    </contour>
    <contour>
      <point x="182" y="331" type="line"/>
      <point x="178" y="388" type="line"/>
      <point x="228" y="388" type="line"/>
      <point x="220" y="331" type="line"/>
    </contour>
    <contour>
      <point x="320" y="331" type="line"/>
      <point x="328" y="388" type="line"/>
      <point x="369" y="388" type="line"/>
      <point x="377" y="331" type="line"/>
    </contour>
    <contour>
      <point x="481" y="331" type="line"/>
      <point x="473" y="388" type="line"/>
      <point x="527" y="388" type="line"/>
      <point x="522" y="331" type="line"/>
    </contour>
  </outline>
</glyph>
<glyph name="uni2C66" format="2">
  <advance width="354"/>
  <unicode hex="2C66"/>
  <anchor x="208" y="-208" name="bottom"/>
  <anchor x="163" y="760" name="top"/>
  <anchor x="177" y="277" name="center"/>
  <anchor x="329" y="664" name="topright"/>
  <outline>
    <contour>
      <point x="101" y="-208" type="line"/>
      <point x="353" y="760" type="line"/>
      <point x="296" y="760" type="line"/>
      <point x="44" y="-208" type="line"/>
    </contour>
    <component base="t"/>
  </outline>
</glyph>
<glyph name="uni2C68" format="2">
  <advance width="562"/>
  <unicode hex="2C68"/>
  <anchor x="266" y="-203" name="bottom"/>
  <anchor x="131" y="760" name="top"/>
  <anchor x="265" y="277" name="center"/>
  <anchor x="484" y="760" name="topright"/>
  <outline>
    <contour>
      <point x="460" y="135" type="line"/>
      <point x="338" y="0" type="line"/>
      <point x="392" y="0" type="line"/>
      <point x="392" y="-203" type="line"/>
      <point x="549" y="-203" type="line"/>
      <point x="549" y="135" type="line"/>
    </contour>
    <component base="h"/>
  </outline>
</glyph>
<glyph name="tildedotbelow" format="2">
  <advance width="500"/>
  <unicode hex="2E1F"/>
  <outline>
    <contour>
      <point x="188" y="145" type="curve" smooth="yes"/>
      <point x="188" y="95"/>
      <point x="217" y="73"/>
      <point x="250" y="73" type="curve" smooth="yes"/>
      <point x="282" y="73"/>
      <point x="312" y="95"/>
      <point x="312" y="145" type="curve" smooth="yes"/>
      <point x="312" y="198"/>
      <point x="282" y="216"/>
      <point x="250" y="216" type="curve" smooth="yes"/>
      <point x="217" y="216"/>
      <point x="188" y="198"/>
    </contour>
    <component base="asciitilde"/>
  </outline>
</glyph>
<glyph name="uniA650" format="2">
  <advance width="868"/>
  <unicode hex="A650"/>
  <outline>
    <contour>
      <point x="146" y="0" type="line"/>
      <point x="330" y="0" type="line" smooth="yes"/>
      <point x="485" y="0"/>
      <point x="576" y="84"/>
      <point x="576" y="237" type="curve" smooth="yes"/>
      <point x="576" y="384"/>
      <point x="484" y="460"/>
      <point x="320" y="460" type="curve" smooth="yes"/>
      <point x="315" y="460" type="line"/>
      <point x="315" y="714" type="line"/>
      <point x="17" y="714" type="line"/>
      <point x="17" y="567" type="line"/>
      <point x="146" y="567" type="line"/>
    </contour>
    <contour>
      <point x="315" y="144" type="line"/>
      <point x="315" y="316" type="line"/>
      <point x="319" y="316" type="line" smooth="yes"/>
      <point x="377" y="316"/>
      <point x="406" y="288"/>
      <point x="406" y="232" type="curve" smooth="yes"/>
      <point x="406" y="173"/>
      <point x="377" y="144"/>
      <point x="320" y="144" type="curve" smooth="yes"/>
    </contour>
    <contour>
      <point x="640" y="0" type="line"/>
      <point x="810" y="0" type="line"/>
      <point x="810" y="714" type="line"/>
      <point x="640" y="714" type="line"/>
    </contour>
  </outline>
</glyph>
<glyph name="uniA665" format="2">
  <advance width="673"/>
  <unicode hex="A665"/>
  <anchor x="273" y="0" name="bottom"/>
  <anchor x="273" y="553" name="top"/>
  <outline>
    <contour>
      <point x="658" y="553" type="line"/>
      <point x="333" y="553" type="line"/>
      <point x="333" y="0" type="line"/>
      <point x="495" y="0" type="line"/>
      <point x="495" y="410" type="line"/>
      <point x="658" y="410" type="line"/>
    </contour>
    <component base="afii10077"/>
  </outline>
</glyph>
<glyph name="uniA684" format="2">
  <advance width="1050"/>
  <unicode hex="A684"/>
  <anchor x="259" y="0" name="bottom_1"/>
  <anchor x="774" y="0" name="bottom_2"/>
  <anchor x="244" y="714" name="top_1"/>
  <anchor x="798" y="714" name="top_2"/>
  <outline>
    <contour>
      <point x="300" y="440" type="line"/>
      <point x="300" y="305" type="line"/>
      <point x="578" y="305" type="line"/>
      <point x="578" y="440" type="line"/>
    </contour>
    <component base="afii10025"/>
    <component base="afii10028" xOffset="498"/>
  </outline>
</glyph>
<glyph name="uniA68F" format="2">
  <advance width="571"/>
  <unicode hex="A68F"/>
  <outline>
    <contour>
      <point x="147" y="-240" type="curve" smooth="yes"/>
      <point x="322" y="-239" type="line" smooth="yes"/>
      <point x="509" y="-238"/>
      <point x="557" y="-154"/>
      <point x="557" y="-45" type="curve" smooth="yes"/>
      <point x="557" y="18"/>
      <point x="535" y="66"/>
      <point x="490" y="97" type="curve"/>
      <point x="490" y="553" type="line"/>
      <point x="328" y="553" type="line"/>
      <point x="328" y="135" type="line"/>
      <point x="212" y="135" type="line"/>
      <point x="212" y="553" type="line"/>
      <point x="50" y="553" type="line"/>
      <point x="50" y="0" type="line"/>
      <point x="317" y="0" type="line" smooth="yes"/>
      <point x="385" y="0"/>
      <point x="413" y="-32"/>
      <point x="413" y="-81" type="curve" smooth="yes"/>
      <point x="413" y="-131"/>
      <point x="381" y="-162"/>
      <point x="279" y="-162" type="curve" smooth="yes"/>
      <point x="179" y="-162" type="line" smooth="yes"/>
      <point x="154" y="-162"/>
      <point x="141" y="-152"/>
      <point x="141" y="-143" type="curve" smooth="yes"/>
      <point x="141" y="-127"/>
      <point x="148" y="-114"/>
      <point x="174" y="-114" type="curve" smooth="yes"/>
      <point x="317" y="-114" type="line"/>
      <point x="317" y="-47" type="line"/>
      <point x="133" y="-47" type="line" smooth="yes"/>
      <point x="73" y="-47"/>
      <point x="35" y="-84"/>
      <point x="35" y="-142" type="curve" smooth="yes"/>
      <point x="35" y="-199"/>
      <point x="68" y="-240"/>
    </contour>
  </outline>
</glyph>
<glyph name="uniA734" format="2">
  <advance width="919"/>
  <unicode hex="A734"/>
  <anchor x="609" y="0" name="bottom"/>
  <anchor x="609" y="357" name="center"/>
  <anchor x="609" y="714" name="top"/>
  <anchor x="899" y="714" name="topright"/>
  <outline>
    <contour>
      <point x="211" y="139" type="line"/>
      <point x="523" y="139" type="line"/>
      <point x="398" y="714" type="line"/>
      <point x="174" y="714" type="line"/>
      <point x="0" y="0" type="line"/>
      <point x="184" y="0" type="line"/>
    </contour>
    <contour>
      <point x="339" y="285" type="line"/>
      <point x="236" y="285" type="line"/>
      <point x="266" y="447" type="line" smooth="yes"/>
      <point x="276" y="500"/>
      <point x="284" y="551"/>
      <point x="288" y="589" type="curve"/>
      <point x="293" y="549"/>
      <point x="300" y="498"/>
      <point x="310" y="445" type="curve" smooth="yes"/>
    </contour>
    <component base="O" xOffset="298"/>
  </outline>
</glyph>
<glyph name="uniA740" format="2">
  <advance width="552"/>
  <unicode hex="A740"/>
  <anchor x="298" y="0" name="bottom"/>
  <anchor x="303" y="714" name="top"/>
  <anchor x="532" y="714" name="topright"/>
  <outline>
    <contour>
      <point x="7" y="541" type="line"/>
      <point x="273" y="541" type="line"/>
      <point x="273" y="661" type="line"/>
      <point x="7" y="661" type="line"/>
    </contour>
    <component base="K"/>
  </outline>
</glyph>
<glyph name="uniA741" format="2">
  <advance width="521"/>
  <unicode hex="A741"/>
  <anchor x="274" y="0" name="bottom"/>
  <anchor x="131" y="760" name="top"/>
  <anchor x="526" y="760" name="topright"/>
  <outline>
    <contour>
      <point x="325" y="696" type="line"/>
      <point x="0" y="696" type="line"/>
      <point x="0" y="583" type="line"/>
      <point x="325" y="583" type="line"/>
    </contour>
    <component base="k"/>
  </outline>
</glyph>
<glyph name="uniA742" format="2">
  <advance width="552"/>
  <unicode hex="A742"/>
  <anchor x="298" y="0" name="bottom"/>
  <anchor x="303" y="714" name="top"/>
  <anchor x="532" y="714" name="topright"/>
  <outline>
    <contour>
      <point x="242" y="178" type="line"/>
      <point x="295" y="71" type="line"/>
      <point x="551" y="196" type="line"/>
      <point x="498" y="303" type="line"/>
    </contour>
    <component base="K"/>
  </outline>
</glyph>
<glyph name="uniA748" format="2">
  <advance width="428"/>
  <unicode hex="A748"/>
  <anchor x="238" y="0" name="bottom"/>
  <anchor x="214" y="357" name="center"/>
  <anchor x="146" y="714" name="top"/>
  <anchor x="288" y="714" name="topright"/>
  <outline>
    <contour>
      <point x="5" y="516" type="line"/>
      <point x="316" y="516" type="line"/>
      <point x="316" y="632" type="line"/>
      <point x="5" y="632" type="line"/>
    </contour>
    <component base="L"/>
  </outline>
</glyph>
<glyph name="uniA74B" format="2">
  <advance width="535"/>
  <unicode hex="A74B"/>
  <anchor x="267" y="0" name="bottom"/>
  <anchor x="268" y="277" name="center"/>
  <anchor x="268" y="553" name="top"/>
  <anchor x="506" y="553" name="topright"/>
  <outline>
    <contour>
      <point x="0" y="219" type="line"/>
      <point x="535" y="219" type="line"/>
      <point x="535" y="335" type="line"/>
      <point x="0" y="335" type="line"/>
    </contour>
    <component base="o" xOffset="10"/>
  </outline>
</glyph>
<glyph name="uniA752" format="2">
  <advance width="651"/>
  <unicode hex="A752"/>
  <anchor x="391" y="0" name="bottom"/>
  <anchor x="410" y="714" name="top"/>
  <anchor x="631" y="714" name="topright"/>
  <outline>
    <contour>
      <point x="349" y="238" type="line"/>
      <point x="349" y="382" type="line"/>
      <point x="199" y="382" type="line" smooth="yes"/>
      <point x="43" y="382"/>
      <point x="4" y="309"/>
      <point x="4" y="208" type="curve"/>
      <point x="4" y="179"/>
      <point x="12" y="158"/>
      <point x="17" y="149" type="curve"/>
      <point x="157" y="149" type="line"/>
      <point x="153" y="159"/>
      <point x="147" y="171"/>
      <point x="147" y="194" type="curve"/>
      <point x="147" y="217"/>
      <point x="162" y="238"/>
      <point x="193" y="238" type="curve" smooth="yes"/>
    </contour>
    <component base="P" xOffset="131"/>
  </outline>
</glyph>
<glyph name="uniA756" format="2">
  <advance width="621"/>
  <unicode hex="A756"/>
  <anchor x="311" y="-170" name="bottom"/>
  <anchor x="311" y="714" name="top"/>
  <anchor x="601" y="714" name="topright"/>
  <outline>
    <contour>
      <point x="231" y="-86" type="line"/>
      <point x="269" y="-178" type="line"/>
      <point x="604" y="-45" type="line"/>
      <point x="566" y="47" type="line"/>
    </contour>
    <component base="Q"/>
  </outline>
</glyph>
<glyph name="uniA757" format="2">
  <advance width="524"/>
  <unicode hex="A757"/>
  <anchor x="393" y="-240" name="bottom"/>
  <anchor x="262" y="553" name="top"/>
  <anchor x="494" y="553" name="topright"/>
  <outline>
    <contour>
      <point x="167" y="-177" type="line"/>
      <point x="524" y="-177" type="line"/>
      <point x="524" y="-61" type="line"/>
      <point x="167" y="-61" type="line"/>
    </contour>
    <component base="q"/>
  </outline>
</glyph>
<glyph name="uniA758" format="2">
  <advance width="785"/>
  <unicode hex="A758"/>
  <anchor x="311" y="-170" name="bottom"/>
  <anchor x="311" y="714" name="top"/>
  <anchor x="601" y="714" name="topright"/>
  <outline>
    <contour>
      <point x="710" y="238" type="curve" smooth="yes"/>
      <point x="710" y="194"/>
      <point x="691" y="158"/>
      <point x="630" y="119" type="curve" smooth="yes"/>
      <point x="240" y="-133" type="line"/>
      <point x="282" y="-199" type="line"/>
      <point x="670" y="50" type="line" smooth="yes"/>
      <point x="744" y="97"/>
      <point x="790" y="139"/>
      <point x="790" y="243" type="curve" smooth="yes"/>
      <point x="790" y="330"/>
      <point x="738" y="390"/>
      <point x="644" y="390" type="curve"/>
      <point x="643" y="312" type="line"/>
      <point x="693" y="312"/>
      <point x="710" y="275"/>
    </contour>
    <component base="Q"/>
  </outline>
</glyph>
<glyph name="uniA75C" format="2">
  <advance width="667"/>
  <unicode hex="A75C"/>
  <outline>
    <contour>
      <point x="657" y="123" type="line"/>
      <point x="657" y="269" type="line"/>
      <point x="278" y="269" type="line"/>
      <point x="278" y="280" type="line"/>
      <point x="313" y="311" type="line" smooth="yes"/>
      <point x="393" y="379"/>
      <point x="428" y="452"/>
      <point x="428" y="540" type="curve" smooth="yes"/>
      <point x="428" y="650"/>
      <point x="361" y="725"/>
      <point x="244" y="725" type="curve" smooth="yes"/>
      <point x="157" y="725"/>
      <point x="82" y="686"/>
      <point x="21" y="616" type="curve"/>
      <point x="99" y="501" type="line"/>
      <point x="143" y="552"/>
      <point x="184" y="578"/>
      <point x="222" y="578" type="curve" smooth="yes"/>
      <point x="245" y="578"/>
      <point x="261" y="553"/>
      <point x="261" y="529" type="curve" smooth="yes"/>
      <point x="261" y="471"/>
      <point x="235" y="433"/>
      <point x="158" y="363" type="curve" smooth="yes"/>
      <point x="35" y="252" type="line"/>
      <point x="35" y="123" type="line"/>
    </contour>
    <contour>
      <point x="585" y="0" type="line"/>
      <point x="585" y="375" type="line"/>
      <point x="415" y="375" type="line"/>
      <point x="415" y="0" type="line"/>
    </contour>
  </outline>
</glyph>
<glyph name="uniA75F" format="2">
  <advance width="491"/>
  <unicode hex="A75F"/>
  <anchor x="245" y="0" name="bottom"/>
  <anchor x="247" y="553" name="top"/>
  <anchor x="471" y="553" name="topright"/>
  <outline>
    <contour>
      <point x="246" y="639" type="line"/>
      <point x="86" y="-93" type="line"/>
      <point x="133" y="-93" type="line"/>
      <point x="296" y="639" type="line"/>
    </contour>
    <component base="v"/>
  </outline>
</glyph>
<glyph name="uniA764" format="2">
  <advance width="500"/>
  <unicode hex="A764"/>
  <outline>
    <contour>
      <point x="269" y="505" type="curve" smooth="yes"/>
      <point x="229" y="505" type="line"/>
      <point x="229" y="555" type="line"/>
      <point x="313" y="555" type="line"/>
      <point x="313" y="671" type="line"/>
      <point x="229" y="671" type="line"/>
      <point x="229" y="714" type="line"/>
      <point x="59" y="714" type="line"/>
      <point x="59" y="671" type="line"/>
      <point x="7" y="671" type="line"/>
      <point x="7" y="555" type="line"/>
      <point x="59" y="555" type="line"/>
      <point x="59" y="0" type="line"/>
      <point x="229" y="0" type="line"/>
      <point x="229" y="73" type="line"/>
      <point x="264" y="73" type="line" smooth="yes"/>
      <point x="419" y="73"/>
      <point x="482" y="175"/>
      <point x="482" y="299" type="curve" smooth="yes"/>
      <point x="482" y="431"/>
      <point x="411" y="505"/>
    </contour>
    <contour>
      <point x="247" y="211" type="curve" smooth="yes"/>
      <point x="229" y="211" type="line"/>
      <point x="229" y="366" type="line"/>
      <point x="257" y="366" type="line" smooth="yes"/>
      <point x="295" y="366"/>
      <point x="314" y="343"/>
      <point x="314" y="297" type="curve" smooth="yes"/>
      <point x="314" y="235"/>
      <point x="288" y="211"/>
    </contour>
  </outline>
</glyph>
<glyph name="uniA765" format="2">
  <advance width="524"/>
  <unicode hex="A765"/>
  <anchor x="262" y="-240" name="bottom"/>
  <anchor x="262" y="760" name="top"/>
  <outline>
    <contour>
      <point x="357" y="714" type="line"/>
      <point x="0" y="714" type="line"/>
      <point x="0" y="598" type="line"/>
      <point x="357" y="598" type="line"/>
    </contour>
    <component base="thorn"/>
  </outline>
</glyph>
<glyph name="uniA768" format="2">
  <advance width="581"/>
  <unicode hex="A768"/>
  <outline>
    <contour>
      <point x="262" y="-114" type="line"/>
      <point x="262" y="0" type="line"/>
      <point x="581" y="714" type="line"/>
      <point x="395" y="714" type="line"/>
      <point x="334" y="554" type="line" smooth="yes"/>
      <point x="308" y="486"/>
      <point x="275" y="381"/>
      <point x="262" y="325" type="curve"/>
      <point x="256" y="325" type="line"/>
      <point x="259" y="369"/>
      <point x="262" y="464"/>
      <point x="262" y="506" type="curve" smooth="yes"/>
      <point x="262" y="588" type="line"/>
      <point x="319" y="623" type="line"/>
      <point x="319" y="714" type="line"/>
      <point x="25" y="714" type="line"/>
      <point x="25" y="623" type="line"/>
      <point x="92" y="588" type="line"/>
      <point x="92" y="-114" type="line"/>
      <point x="25" y="-149" type="line"/>
      <point x="25" y="-240" type="line"/>
      <point x="329" y="-240" type="line"/>
      <point x="329" y="-149" type="line"/>
    </contour>
  </outline>
</glyph>
<glyph name="uniA772" format="2">
  <advance width="471"/>
  <unicode hex="A772"/>
  <anchor x="132" y="0" name="bottom"/>
  <anchor x="132" y="277" name="center"/>
  <anchor x="132" y="760" name="top"/>
  <anchor x="232" y="760" name="topright"/>
  <outline>
    <contour>
      <point x="205" y="0" type="line"/>
      <point x="466" y="0" type="line"/>
      <point x="466" y="135" type="line"/>
      <point x="205" y="135" type="line"/>
    </contour>
    <contour>
      <point x="323" y="298" type="line"/>
      <point x="197" y="-157" type="line"/>
      <point x="306" y="-157" type="line"/>
      <point x="431" y="298" type="line"/>
    </contour>
    <component base="l"/>
  </outline>
</glyph>
<glyph name="uniA773" format="2">
  <advance width="997"/>
  <unicode hex="A773"/>
  <anchor x="396" y="0" name="bottom"/>
  <anchor x="412" y="553" name="top"/>
  <anchor x="760" y="553" name="topright"/>
  <outline>
    <contour>
      <point x="731" y="0" type="line"/>
      <point x="992" y="0" type="line"/>
      <point x="992" y="135" type="line"/>
      <point x="731" y="135" type="line"/>
    </contour>
    <contour>
      <point x="849" y="298" type="line"/>
      <point x="723" y="-157" type="line"/>
      <point x="832" y="-157" type="line"/>
      <point x="957" y="298" type="line"/>
    </contour>
    <component base="m"/>
  </outline>
</glyph>
<glyph name="uniA790" format="2">
  <advance width="704"/>
  <unicode hex="A790"/>
  <anchor x="328" y="0" name="bottom"/>
  <anchor x="328" y="714" name="top"/>
  <anchor x="636" y="714" name="topright"/>
  <outline>
    <contour>
      <point x="524" y="0" type="line"/>
      <point x="524" y="-222" type="line"/>
      <point x="689" y="-222" type="line"/>
      <point x="689" y="146" type="line"/>
      <point x="596" y="146" type="line"/>
    </contour>
    <component base="N"/>
  </outline>
</glyph>
<glyph name="uniA791" format="2">
  <advance width="561"/>
  <unicode hex="A791"/>
  <anchor x="265" y="0" name="bottom"/>
  <anchor x="275" y="553" name="top"/>
  <anchor x="500" y="553" name="topright"/>
  <outline>
    <contour>
      <point x="392" y="-7" type="line"/>
      <point x="392" y="-203" type="line"/>
      <point x="549" y="-203" type="line"/>
      <point x="549" y="135" type="line"/>
      <point x="480" y="135" type="line"/>
    </contour>
    <component base="n"/>
  </outline>
</glyph>
<glyph name="uniA794" format="2">
  <advance width="433"/>
  <unicode hex="A794"/>
  <anchor x="254" y="0" name="bottom"/>
  <anchor x="247" y="553" name="top"/>
  <anchor x="403" y="553" name="topright"/>
  <outline>
    <contour>
      <point x="234" y="48" type="line"/>
      <point x="234" y="-25" type="line" smooth="yes"/>
      <point x="234" y="-105"/>
      <point x="206" y="-124"/>
      <point x="177" y="-124" type="curve" smooth="yes"/>
      <point x="159" y="-124"/>
      <point x="148" y="-121"/>
      <point x="126" y="-115" type="curve"/>
      <point x="126" y="-249" type="line"/>
      <point x="149" y="-256"/>
      <point x="190" y="-260"/>
      <point x="219" y="-260" type="curve" smooth="yes"/>
      <point x="349" y="-260"/>
      <point x="396" y="-164"/>
      <point x="396" y="-60" type="curve" smooth="yes"/>
      <point x="396" y="148" type="line"/>
    </contour>
    <component base="c"/>
  </outline>
</glyph>
<glyph name="uniA7A1" format="2">
  <advance width="524"/>
  <unicode hex="A7A1"/>
  <anchor x="229" y="-240" name="bottom"/>
  <anchor x="271" y="553" name="top"/>
  <anchor x="494" y="553" name="topright"/>
  <outline>
    <contour>
      <point x="3" y="285" type="line"/>
      <point x="3" y="169" type="line"/>
      <point x="524" y="281" type="line"/>
      <point x="524" y="397" type="line"/>
    </contour>
    <component base="g"/>
  </outline>
</glyph>
<glyph name="uniA7A2" format="2">
  <advance width="552"/>
  <unicode hex="A7A2"/>
  <anchor x="298" y="0" name="bottom"/>
  <anchor x="303" y="714" name="top"/>
  <anchor x="532" y="714" name="topright"/>
  <outline>
    <contour>
      <point x="308" y="315" type="line"/>
      <point x="533" y="367" type="line"/>
      <point x="533" y="473" type="line"/>
      <point x="308" y="421" type="line"/>
    </contour>
    <contour>
      <point x="0" y="243" type="line"/>
      <point x="145" y="277" type="line"/>
      <point x="145" y="383" type="line"/>
      <point x="0" y="349" type="line"/>
    </contour>
    <component base="K"/>
  </outline>
</glyph>
<glyph name="uniA7A3" format="2">
  <advance width="521"/>
  <unicode hex="A7A3"/>
  <anchor x="274" y="0" name="bottom"/>
  <anchor x="131" y="760" name="top"/>
  <anchor x="526" y="760" name="topright"/>
  <outline>
    <contour>
      <point x="7" y="259" type="line"/>
      <point x="7" y="143" type="line"/>
      <point x="514" y="281" type="line"/>
      <point x="514" y="397" type="line"/>
    </contour>
    <component base="k"/>
  </outline>
</glyph>
<glyph name="uniA7A4" format="2">
  <advance width="656"/>
  <unicode hex="A7A4"/>
  <anchor x="328" y="0" name="bottom"/>
  <anchor x="328" y="714" name="top"/>
  <anchor x="636" y="714" name="topright"/>
  <outline>
    <contour>
      <point x="0" y="329" type="line"/>
      <point x="0" y="223" type="line"/>
      <point x="656" y="397" type="line"/>
      <point x="656" y="503" type="line"/>
    </contour>
    <component base="N"/>
  </outline>
</glyph>
<glyph name="uniA7A7" format="2">
  <advance width="375"/>
  <unicode hex="A7A7"/>
  <anchor x="139" y="0" name="bottom"/>
  <anchor x="205" y="553" name="top"/>
  <anchor x="365" y="553" name="topright"/>
  <outline>
    <contour>
      <point x="3" y="246" type="line"/>
      <point x="3" y="130" type="line"/>
      <point x="372" y="221" type="line"/>
      <point x="372" y="337" type="line"/>
    </contour>
    <component base="r"/>
  </outline>
</glyph>
<glyph name="uniA7A9" format="2">
  <advance width="396"/>
  <unicode hex="A7A9"/>
  <anchor x="184" y="0" name="bottom"/>
  <anchor x="204" y="553" name="top"/>
  <anchor x="376" y="553" name="topright"/>
  <outline>
    <contour>
      <point x="3" y="314" type="line"/>
      <point x="3" y="198" type="line"/>
      <point x="393" y="260" type="line"/>
      <point x="393" y="376" type="line"/>
    </contour>
    <component base="s"/>
  </outline>
</glyph>
<glyph name="uniA7AA" format="2">
  <advance width="741"/>
  <unicode hex="A7AA"/>
  <anchor x="435" y="0" name="bottom"/>
  <anchor x="435" y="357" name="center"/>
  <anchor x="436" y="714" name="top"/>
  <anchor x="721" y="714" name="topright"/>
  <outline>
    <contour>
      <point x="226" y="714" type="line"/>
      <point x="197" y="714" type="line" smooth="yes"/>
      <point x="46" y="714"/>
      <point x="4" y="636"/>
      <point x="4" y="549" type="curve" smooth="yes"/>
      <point x="4" y="509"/>
      <point x="9" y="480"/>
      <point x="13" y="471" type="curve"/>
      <point x="147" y="471" type="line"/>
      <point x="144" y="481"/>
      <point x="139" y="500"/>
      <point x="139" y="533" type="curve" smooth="yes"/>
      <point x="139" y="548"/>
      <point x="150" y="576"/>
      <point x="171" y="576" type="curve" smooth="yes"/>
      <point x="226" y="576" type="line"/>
    </contour>
    <component base="H" xOffset="132"/>
  </outline>
</glyph>
<glyph name="uniA7AE" format="2">
  <advance width="511"/>
  <unicode hex="A7AE"/>
  <anchor x="256" y="0" name="bottom"/>
  <anchor x="256" y="714" name="top"/>
  <outline>
    <contour>
      <point x="485" y="714" type="line"/>
      <point x="26" y="714" type="line"/>
      <point x="26" y="623" type="line"/>
      <point x="170" y="596" type="line"/>
      <point x="170" y="118" type="line"/>
      <point x="26" y="91" type="line"/>
      <point x="26" y="0" type="line"/>
      <point x="485" y="0" type="line"/>
      <point x="485" y="91" type="line"/>
      <point x="340" y="118" type="line"/>
      <point x="340" y="596" type="line"/>
      <point x="485" y="623" type="line"/>
    </contour>
  </outline>
</glyph>
<glyph name="uniA7B9" format="2">
  <advance width="529"/>
  <unicode hex="A7B9"/>
  <anchor x="262" y="0" name="bottom"/>
  <anchor x="265" y="553" name="top"/>
  <anchor x="499" y="553" name="topright"/>
  <outline>
    <contour>
      <point x="144" y="-57" type="line"/>
      <point x="453" y="563" type="line"/>
      <point x="377" y="598" type="line"/>
      <point x="67" y="-22" type="line"/>
    </contour>
    <component base="u"/>
  </outline>
</glyph>
<glyph name="uniA7C8" format="2">
  <advance width="524"/>
  <unicode hex="A7C8"/>
  <anchor x="257" y="0" name="bottom"/>
  <anchor x="262" y="277" name="center"/>
  <anchor x="192" y="760" name="top"/>
  <anchor x="494" y="760" name="topright"/>
  <outline>
    <contour>
      <point x="114" y="233" type="line"/>
      <point x="399" y="233" type="line"/>
      <point x="399" y="318" type="line"/>
      <point x="114" y="318" type="line"/>
    </contour>
    <component base="d"/>
  </outline>
</glyph>
<glyph name="uniA7CA" format="2">
  <advance width="396"/>
  <unicode hex="A7CA"/>
  <anchor x="184" y="0" name="bottom"/>
  <anchor x="204" y="553" name="top"/>
  <anchor x="376" y="553" name="topright"/>
  <outline>
    <contour>
      <point x="4" y="225" type="line"/>
      <point x="399" y="225" type="line"/>
      <point x="399" y="310" type="line"/>
      <point x="4" y="310" type="line"/>
    </contour>
    <component base="s"/>
  </outline>
</glyph>
<glyph name="uniAB39" format="2">
  <advance width="462"/>
  <unicode hex="AB39"/>
  <anchor x="232" y="0" name="bottom"/>
  <anchor x="232" y="277" name="center"/>
  <anchor x="232" y="760" name="top"/>
  <anchor x="332" y="760" name="topright"/>
  <outline>
    <contour>
      <point x="231" y="185" type="curve" smooth="yes"/>
      <point x="382" y="185"/>
      <point x="467" y="276"/>
      <point x="467" y="395" type="curve" smooth="yes"/>
      <point x="467" y="513"/>
      <point x="381" y="605"/>
      <point x="231" y="605" type="curve" smooth="yes"/>
      <point x="81" y="605"/>
      <point x="-5" y="513"/>
      <point x="-5" y="395" type="curve" smooth="yes"/>
      <point x="-5" y="276"/>
      <point x="80" y="185"/>
    </contour>
    <contour>
      <point x="231" y="269" type="curve" smooth="yes"/>
      <point x="127" y="269"/>
      <point x="82" y="325"/>
      <point x="82" y="395" type="curve" smooth="yes"/>
      <point x="82" y="465"/>
      <point x="127" y="521"/>
      <point x="231" y="521" type="curve" smooth="yes"/>
      <point x="335" y="521"/>
      <point x="380" y="465"/>
      <point x="380" y="395" type="curve" smooth="yes"/>
      <point x="380" y="325"/>
      <point x="335" y="269"/>
    </contour>
    <component base="l" xOffset="100"/>
  </outline>
</glyph>
<glyph name="uniAB41" format="2">
  <advance width="765"/>
  <unicode hex="AB41"/>
  <anchor x="382" y="551" name="bottom"/>
  <anchor x="382" y="-2" name="top"/>
  <outline>
    <contour>
      <point x="412" y="-57" type="line"/>
      <point x="673" y="571" type="line"/>
      <point x="607" y="598" type="line"/>
      <point x="346" y="-30" type="line"/>
    </contour>
    <component base="oe" xScale="-1" yScale="-1" xOffset="765" yOffset="551"/>
  </outline>
</glyph>
<glyph name="uniAB42" format="2">
  <advance width="765"/>
  <unicode hex="AB42"/>
  <anchor x="382" y="551" name="bottom"/>
  <anchor x="382" y="-2" name="top"/>
  <outline>
    <contour>
      <point x="343" y="311" type="line"/>
      <point x="343" y="205" type="line"/>
      <point x="709" y="205" type="line"/>
      <point x="709" y="311" type="line"/>
    </contour>
    <component base="oe" xScale="-1" yScale="-1" xOffset="765" yOffset="551"/>
  </outline>
</glyph>
<glyph name="uniAB44" format="2">
  <advance width="896"/>
  <unicode hex="AB44"/>
  <outline>
    <contour>
      <point x="536" y="-57" type="line"/>
      <point x="797" y="571" type="line"/>
      <point x="731" y="598" type="line"/>
      <point x="470" y="-30" type="line"/>
    </contour>
    <component base="uniAB43"/>
  </outline>
</glyph>
<glyph name="uniAB60" format="2">
  <advance width="731"/>
  <unicode hex="AB60"/>
  <outline>
    <contour>
      <point x="305" y="0" type="line"/>
      <point x="505" y="0" type="line" smooth="yes"/>
      <point x="634" y="0"/>
      <point x="708" y="56"/>
      <point x="708" y="183" type="curve" smooth="yes"/>
      <point x="708" y="304"/>
      <point x="635" y="354"/>
      <point x="488" y="354" type="curve" smooth="yes"/>
      <point x="467" y="354" type="line"/>
      <point x="467" y="553" type="line"/>
      <point x="305" y="553" type="line"/>
    </contour>
    <contour>
      <point x="50" y="0" type="line"/>
      <point x="212" y="0" type="line"/>
      <point x="212" y="553" type="line"/>
      <point x="50" y="553" type="line"/>
    </contour>
    <contour>
      <point x="467" y="120" type="line"/>
      <point x="467" y="234" type="line"/>
      <point x="492" y="234" type="line" smooth="yes"/>
      <point x="531" y="234"/>
      <point x="546" y="213"/>
      <point x="546" y="175" type="curve" smooth="yes"/>
      <point x="546" y="140"/>
      <point x="526" y="120"/>
      <point x="494" y="120" type="curve" smooth="yes"/>
    </contour>
  </outline>
</glyph>
<glyph name="uniFE2F" format="2">
  <unicode hex="FE2F"/>
  <anchor x="-1" y="553" name="_top"/>
  <outline>
    <contour>
      <point x="-146" y="601" type="line"/>
      <point x="63" y="601" type="line" smooth="yes"/>
      <point x="131" y="601"/>
      <point x="145" y="644"/>
      <point x="145" y="685" type="curve" smooth="yes"/>
      <point x="145" y="730"/>
      <point x="124" y="758"/>
      <point x="78" y="758" type="curve" smooth="yes"/>
      <point x="44" y="758"/>
      <point x="17" y="742"/>
      <point x="14" y="716" type="curve"/>
      <point x="-146" y="716" type="line"/>
    </contour>
  </outline>
</glyph>
<glyph name="uogonek.sc" format="2">
  <advance width="510"/>
  <anchor x="255" y="-240" name="bottom"/>
  <anchor x="255" y="589" name="top"/>
  <anchor x="490" y="589" name="topright"/>
  <outline>
    <contour>
      <point x="319" y="-97" type="curve"/>
      <point x="319" y="-66"/>
      <point x="327" y="-41"/>
      <point x="409" y="54" type="curve"/>
      <point x="309" y="25" type="line"/>
      <point x="220" y="-35"/>
      <point x="195" y="-82"/>
      <point x="195" y="-127" type="curve"/>
      <point x="195" y="-197"/>
      <point x="254" y="-240"/>
      <point x="330" y="-240" type="curve"/>
      <point x="366" y="-240"/>
      <point x="393" y="-234"/>
      <point x="415" y="-227" type="curve"/>
      <point x="415" y="-119" type="line"/>
      <point x="401" y="-125"/>
      <point x="374" y="-130"/>
      <point x="357" y="-130" type="curve"/>
      <point x="334" y="-130"/>
      <point x="319" y="-121"/>
    </contour>
    <component base="u.sc"/>
  </outline>
</glyph>
